<?xml version="1.0" encoding="utf-8"?>
<svg version="1.1" id="Layer_1"
xmlns="http://www.w3.org/2000/svg"
xmlns:xlink="http://www.w3.org/1999/xlink"
width="152px" height="127px"
xml:space="preserve">
<g id="PathID_1" transform="matrix(1, 0, 0, 1, 0.65, 0.65)" opacity="1">
<path style="fill:#010203;fill-opacity:0" d="M96.05 7.25L105.95 63.6L105.95 66.15L145.5 83L145.5 83.25L145.95 83.25L145.95 83.45L146.2 83.45L146.4 83.65Q148.55 85.05 149.2 87.2L149.35 87.45Q151.65 94.8 146.2 97.95L145.95 97.95L145.15 98.4L144.7 98.4L56.15 124.95L55.35 125.3L54.65 125.3Q48.6 125.85 45.45 122.7L17.15 94.95L16.8 94.95L16.8 94.8L16.35 94.35Q14.05 91.5 14.05 87.65Q12.45 85.5 11.7 82.4L0.4 17.15L0.1 17.05L0.1 16.4Q-0.5 11.1 2.7 7.15Q5.5 4.2 10.05 3.75L87.65 0L90.45 0.45Q91.55 0.9 93.1 2.1Q95.3 3.85 96.05 7.25M87.95 5.95L10.3 9.7Q9.15 9.7 8.6 10.35Q7.8 11.1 7.8 12.4L19.3 78.2Q20.1 81.95 22.5 81.5L98.65 67.05L99.9 66.15L100.1 65.7L90.05 8.5Q89.8 6.9 88.9 6.3L87.95 5.95M102.05 73.1L32.15 88.1L44.55 98.4L119.75 81.15L102.05 73.1M99.7 70.35L20.55 85.95L20.55 86.75L49.85 114.15L50.1 114.15Q51.5 115.95 54.65 115.05L143.65 89.7L143.65 89.35L101.15 70.8L99.7 70.35M102.2 72.45L122.2 81.5L44.3 99.1L44.1 99.1L30.9 88.1L30.2 87.65L31.1 87.65L102.05 72.45L102.2 72.45M98.65 67.8L22.85 82.1Q21 82.1 20.2 81.6Q19.05 80.7 18.5 78.2L7.05 12.7L7.05 12.4L7.35 11.1Q5.65 12.85 6.1 15.75L17.6 81.5Q18.2 85.05 20.65 84.55L98.65 69.4Q99.9 69.15 99.9 67.05L98.65 67.8M143.8 90.45L54.9 115.85L54.65 115.85Q50.8 116.3 49.4 114.6L20.1 87.45Q20.1 89.2 21 90.6L49.55 118.35Q51.05 120.15 54.2 119.25L143.2 92.75Q144.25 92 143.8 90.45M96.5 59.25L23.7 73.1L13.4 15.45L87.65 10.35L96.5 59.25" />
</g>
<g id="PathID_2" transform="matrix(1, 0, 0, 1, 0.65, 0.65)" opacity="1">
<path style="fill:none;stroke-width:1.3;stroke-linecap:round;stroke-linejoin:round;stroke-miterlimit:3;stroke:#000205;stroke-opacity:0.498039" d="M93.1 2.1Q91.55 0.9 90.45 0.45L87.65 0L10.05 3.75Q5.5 4.2 2.7 7.15Q-0.5 11.1 0.1 16.4L0.1 17.05L0.4 17.15L11.7 82.4Q12.45 85.5 14.05 87.65Q14.05 91.5 16.35 94.35L16.8 94.8L16.8 94.95L17.15 94.95L45.45 122.7Q48.6 125.85 54.65 125.3L55.35 125.3L56.15 124.95L144.7 98.4L145.15 98.4L145.95 97.95L146.2 97.95Q151.65 94.8 149.35 87.45L149.2 87.2Q148.55 85.05 146.4 83.65L146.2 83.45L145.95 83.45L145.95 83.25L145.5 83.25L145.5 83L105.95 66.15L105.95 63.6L96.05 7.25Q95.3 3.85 93.1 2.1z" />
<path style="fill:none;stroke-width:1.3;stroke-linecap:round;stroke-linejoin:round;stroke-miterlimit:3;stroke:#000205;stroke-opacity:0.498039" d="M88.9 6.3Q89.8 6.9 90.05 8.5L100.1 65.7L99.9 66.15L98.65 67.05L22.5 81.5Q20.1 81.95 19.3 78.2L7.8 12.4Q7.8 11.1 8.6 10.35Q9.15 9.7 10.3 9.7L87.95 5.95L88.9 6.3z" />
<path style="fill:none;stroke-width:1.3;stroke-linecap:round;stroke-linejoin:round;stroke-miterlimit:3;stroke:#000205;stroke-opacity:0.498039" d="M119.75 81.15L44.55 98.4L32.15 88.1L102.05 73.1L119.75 81.15z" />
<path style="fill:none;stroke-width:1.3;stroke-linecap:round;stroke-linejoin:round;stroke-miterlimit:3;stroke:#000205;stroke-opacity:0.498039" d="M101.15 70.8L143.65 89.35L143.65 89.7L54.65 115.05Q51.5 115.95 50.1 114.15L49.85 114.15L20.55 86.75L20.55 85.95L99.7 70.35L101.15 70.8z" />
<path style="fill:none;stroke-width:1.3;stroke-linecap:round;stroke-linejoin:round;stroke-miterlimit:3;stroke:#000205;stroke-opacity:0.498039" d="M102.05 72.45L31.1 87.65L30.2 87.65L30.9 88.1L44.1 99.1L44.3 99.1L122.2 81.5L102.2 72.45L102.05 72.45z" />
<path style="fill:none;stroke-width:1.3;stroke-linecap:round;stroke-linejoin:round;stroke-miterlimit:3;stroke:#000205;stroke-opacity:0.498039" d="M99.9 67.05Q99.9 69.15 98.65 69.4L20.65 84.55Q18.2 85.05 17.6 81.5L6.1 15.75Q5.65 12.85 7.35 11.1L7.05 12.4L7.05 12.7L18.5 78.2Q19.05 80.7 20.2 81.6Q21 82.1 22.85 82.1L98.65 67.8L99.9 67.05z" />
<path style="fill:none;stroke-width:1.3;stroke-linecap:round;stroke-linejoin:round;stroke-miterlimit:3;stroke:#000205;stroke-opacity:0.498039" d="M143.2 92.75L54.2 119.25Q51.05 120.15 49.55 118.35L21 90.6Q20.1 89.2 20.1 87.45L49.4 114.6Q50.8 116.3 54.65 115.85L54.9 115.85L143.8 90.45Q144.25 92 143.2 92.75z" />
<path style="fill:none;stroke-width:1.3;stroke-linecap:round;stroke-linejoin:round;stroke-miterlimit:3;stroke:#000205;stroke-opacity:0.498039" d="M87.65 10.35L13.4 15.45L23.7 73.1L96.5 59.25L87.65 10.35z" />
</g>
<g id="PathID_3" transform="matrix(0.305134, -0.0674502, 0.0674502, 0.305134, 26.15, 47.65)" opacity="1">
<path style="fill:#000000;fill-opacity:1" d="M21 -38.8Q21.35 -38.55 21.35 -38.25Q21.35 -37.8 20.75 -37.8L20.2 -37.9Q19.05 -38.5 18.5 -38.5Q16.95 -38.5 15.1 -35.45Q8.5 -24.7 5.3 -7.3Q9.4 -15.15 14.65 -19.8Q15.75 -20.85 16.3 -20.85Q16.45 -20.85 17.55 -20.1Q18.85 -19.55 19.05 -19.4Q19.7 -18.85 19.7 -17.4L19.6 -16.55Q19.2 -12.1 17.05 -5.75L19.5 -8.85Q19.9 -9.3 20.2 -9.3Q20.5 -9.3 20.5 -8.95Q20.5 -8.55 20.15 -8.1Q18.7 -6 16.3 -1.95L15.3 0.15Q15 0.95 14.4 0.95Q13.75 0.95 12.55 0.1Q12.05 -0.25 12.35 -1Q16.65 -11.8 16.9 -17.15Q17 -18.7 16.5 -18.7Q16.15 -18.7 15.1 -17.8Q13.2 -16.25 10.4 -12.3Q6.7 -7.1 4.7 -1.7Q4.15 -0.15 3.65 -0.15Q3.25 -0.15 2 -1.15Q1.4 -1.7 1.6 -2.9Q4.5 -18.8 9.15 -30.05Q12.6 -38.4 15.35 -41Q16.05 -41.65 16.75 -41.65Q17.45 -41.65 18.5 -40.85L21 -38.8" />
</g>
<g id="PathID_4" transform="matrix(0.305134, -0.0674502, 0.0674502, 0.305134, 26.15, 47.65)" opacity="1">
</g>
<g id="PathID_5" transform="matrix(0.305134, -0.0674502, 0.0674502, 0.305134, 32.65, 46.25)" opacity="1">
<path style="fill:#000000;fill-opacity:1" d="M15.2 -31.85Q15.9 -31.5 15.9 -31Q15.9 -30.7 15.4 -30.7L15.1 -30.75L14.8 -30.8Q13.85 -30.8 12.5 -28.7Q11.3 -26.85 9.15 -20.65L9 -20Q9.1 -19.8 9.65 -19.8Q11.15 -19.65 13.6 -19.9Q14.45 -20 14.45 -19.15Q14.45 -18.6 13.8 -18.5Q13.25 -18.4 8.3 -18.05Q5.3 -9.25 4.65 -3.2L4.65 -2.6Q4.65 -1.8 5.05 -1.8Q5.75 -1.8 9.15 -5.05Q9.55 -5.45 9.9 -5.45Q10.25 -5.45 10.3 -5.15Q10.4 -4.85 10.05 -4.45Q8.05 -1.8 6.1 0.1Q5.25 0.85 4.7 0.85Q4.15 0.85 3 0Q1.6 -0.4 1.6 -1.5L1.65 -1.9Q2.55 -8.35 5.3 -17.8L2.85 -18.15Q2.4 -18.2 2.4 -18.75Q2.4 -19.35 2.9 -19.45L4.75 -20Q5.55 -20.3 6.35 -20.8Q9 -29.05 10.55 -31.5Q11.4 -32.9 12.4 -32.9Q13.35 -32.9 15.2 -31.85" />
</g>
<g id="PathID_6" transform="matrix(0.305134, -0.0674502, 0.0674502, 0.305134, 32.65, 46.25)" opacity="1">
</g>
<g id="PathID_7" transform="matrix(0.305134, -0.0674502, 0.0674502, 0.305134, 36.3, 45.45)" opacity="1">
<path style="fill:#000000;fill-opacity:1" d="M15.2 -31.85Q15.9 -31.5 15.9 -31Q15.9 -30.7 15.4 -30.7L15.1 -30.75L14.8 -30.8Q13.85 -30.8 12.5 -28.7Q11.3 -26.85 9.15 -20.65L9 -20Q9.1 -19.8 9.65 -19.8Q11.15 -19.65 13.6 -19.9Q14.45 -20 14.45 -19.15Q14.45 -18.6 13.8 -18.5Q13.25 -18.4 8.3 -18.05Q5.3 -9.25 4.65 -3.2L4.65 -2.6Q4.65 -1.8 5.05 -1.8Q5.75 -1.8 9.15 -5.05Q9.55 -5.45 9.9 -5.45Q10.25 -5.45 10.3 -5.15Q10.4 -4.85 10.05 -4.45Q8.05 -1.8 6.1 0.1Q5.25 0.85 4.7 0.85Q4.15 0.85 3 0Q1.6 -0.4 1.6 -1.5L1.65 -1.9Q2.55 -8.35 5.3 -17.8L2.85 -18.15Q2.4 -18.2 2.4 -18.75Q2.4 -19.35 2.9 -19.45L4.75 -20Q5.55 -20.3 6.35 -20.8Q9 -29.05 10.55 -31.5Q11.4 -32.9 12.4 -32.9Q13.35 -32.9 15.2 -31.85" />
</g>
<g id="PathID_8" transform="matrix(0.305134, -0.0674502, 0.0674502, 0.305134, 36.3, 45.45)" opacity="1">
</g>
<g id="PathID_9" transform="matrix(0.305134, -0.0674502, 0.0674502, 0.305134, 39.95, 44.6)" opacity="1">
<path style="fill:#000000;fill-opacity:1" d="M20.2 -15.4Q19.9 -11.15 18 -6.3Q16.2 -1.75 14.45 -0.1Q13.45 0.8 12.4 0.8Q11.25 0.8 8.6 -1.05Q8.1 -1.4 8.1 -1.75Q8.1 -2.25 8.75 -2.25Q9 -2.25 9.5 -2.05Q10.05 -1.9 10.4 -1.9Q12.2 -1.9 13.65 -4.2Q14.85 -6.2 15.95 -9.6Q17.3 -13.8 17.1 -16.8Q17.05 -18.3 16.15 -18.3Q15.35 -18.3 14.2 -17.15Q6.1 -9.4 2.8 1.35Q0.9 7.5 0.3 12.7L-0.4 21.4Q-0.5 22.6 -1 22.6Q-1.5 22.6 -2.85 21.4Q-3.8 20.5 -3.6 19.2Q-2.5 6.75 2.45 -8.55Q6.3 -20.55 8.55 -24.1Q9.9 -26.2 10.95 -26.1Q12 -26.1 14.95 -24.25Q15.35 -24 15.35 -23.7Q15.35 -23.35 14.75 -23.35L14.25 -23.4L13.7 -23.5Q12.15 -23.5 10.45 -20.8Q9.45 -19.25 7.95 -15.6Q6.45 -12 5.75 -9.7Q9.45 -15.7 14.3 -20Q15.05 -20.7 15.65 -20.7Q15.95 -20.7 17.05 -19.9Q20.45 -18.7 20.2 -15.4" />
</g>
<g id="PathID_10" transform="matrix(0.305134, -0.0674502, 0.0674502, 0.305134, 39.95, 44.6)" opacity="1">
</g>
<g id="PathID_11" transform="matrix(0.305134, -0.0674502, 0.0674502, 0.305134, 46.35, 43.2)" opacity="1">
<path style="fill:#000000;fill-opacity:1" d="M7.25 -15.2Q7.95 -14.95 7.95 -14.35Q7.95 -13.8 6.9 -11.45Q6.1 -9.6 5.15 -9.6L3.35 -9.8Q3.1 -9.85 3 -10.15Q2.9 -10.4 3.2 -10.5Q4.45 -13.25 4.8 -14.6Q5.1 -15.65 5.55 -15.65Q6 -15.65 7.25 -15.2M3.85 -4.95Q4.5 -4.7 4.5 -4.1Q4.5 -3.55 3.5 -1.2Q2.7 0.65 1.75 0.65L-0.05 0.45Q-0.35 0.4 -0.4 0.15Q-0.5 -0.15 -0.15 -0.2Q0.5 -1.75 1.4 -4.3Q1.65 -5.4 2.15 -5.4Q2.6 -5.4 3.85 -4.95" />
</g>
<g id="PathID_12" transform="matrix(0.305134, -0.0674502, 0.0674502, 0.305134, 46.35, 43.2)" opacity="1">
</g>
<g id="PathID_13" transform="matrix(0.305134, -0.0674502, 0.0674502, 0.305134, 49.45, 42.5)" opacity="1">
<path style="fill:#000000;fill-opacity:1" d="M24.2 -31.65L7.35 -6.3Q4.15 -1.45 4.15 0.45L4.2 0.85L4.3 1.3Q4.3 2.2 3.4 2.2Q2.9 2.2 2.3 1.8L0.9 0.7Q0.3 0.25 0.3 -0.45Q0.3 -1.15 0.85 -2.05L17.95 -27.7Q20.6 -31.65 20.6 -33.65L20.5 -34.15L20.4 -34.7Q20.4 -35.45 21.05 -35.45L21.45 -35.35L23.95 -34.3Q24.65 -33.85 24.65 -33.2Q24.65 -32.55 24.2 -31.65" />
</g>
<g id="PathID_14" transform="matrix(0.305134, -0.0674502, 0.0674502, 0.305134, 49.45, 42.5)" opacity="1">
</g>
<g id="PathID_15" transform="matrix(0.305134, -0.0674502, 0.0674502, 0.305134, 55.7, 41.15)" opacity="1">
<path style="fill:#000000;fill-opacity:1" d="M24.2 -31.65L7.35 -6.3Q4.15 -1.45 4.15 0.45L4.2 0.85L4.3 1.3Q4.3 2.2 3.4 2.2Q2.9 2.2 2.3 1.8L0.9 0.7Q0.3 0.25 0.3 -0.45Q0.3 -1.15 0.85 -2.05L17.95 -27.7Q20.6 -31.65 20.6 -33.65L20.5 -34.15L20.4 -34.7Q20.4 -35.45 21.05 -35.45L21.45 -35.35L23.95 -34.3Q24.65 -33.85 24.65 -33.2Q24.65 -32.55 24.2 -31.65" />
</g>
<g id="PathID_16" transform="matrix(0.305134, -0.0674502, 0.0674502, 0.305134, 55.7, 41.15)" opacity="1">
</g>
<g id="PathID_17" transform="matrix(0.305134, -0.0674502, 0.0674502, 0.305134, 61.95, 39.75)" opacity="1">
<path style="fill:#000000;fill-opacity:1" d="M26.15 -12.9Q26.55 -12.55 26.55 -12.2Q26.55 -11.45 25.85 -11.45Q25.7 -11.45 24.85 -12L24.2 -12.4Q21.05 -3.7 18.8 -0.6Q17.95 0.6 17.05 0.6Q16.65 0.6 15.3 0.2Q14.15 -0.2 13.85 -0.45Q13.6 -0.75 13.3 -1.85Q12.2 -6.35 12.2 -9.25Q10.95 -7.5 8.1 -4.05Q5.35 -0.8 4.75 0.1Q4.45 0.55 3.9 0.55Q3.2 0.55 1.7 -0.6Q1.35 -0.85 1.35 -1.1Q1.35 -1.5 2.35 -2.25Q3.2 -4.75 3.85 -8.65Q4.45 -12.45 4.45 -15.15Q4.45 -16.55 4.25 -17.3Q3.7 -16.8 2.05 -14.6Q1.75 -14.25 1.4 -14.25Q0.85 -14.25 0.85 -14.75Q0.85 -15 1 -15.2Q1.8 -16.2 3.2 -18.45Q3.65 -19.3 4.4 -19.6L6.3 -20.1L7 -20.2Q7.45 -20.2 7.55 -19.7Q7.65 -19.35 7.65 -17.95Q7.65 -10.1 5.9 -4.25Q10.45 -8.75 12.1 -13.05Q12.3 -15.4 12.5 -16.45Q12.8 -18.15 13.55 -19.4Q14.15 -20.5 14.85 -20.5Q15.45 -20.5 16.7 -19.6Q17.45 -19.1 17.45 -18.7Q17.45 -18.5 17.05 -17.4Q16.3 -15.3 15.2 -13.75Q14.95 -12.1 14.95 -10.3Q14.95 -6.65 15.95 -2.7Q16.2 -1.6 16.65 -1.6Q17.1 -1.6 17.8 -2.9Q21.5 -10.1 22.4 -13.75L21.75 -14.65Q21.4 -15.15 21.4 -15.7Q21.4 -16.2 21.65 -16.85L22.15 -19.15Q22.55 -20.65 23.45 -20.65Q24.2 -20.65 25.5 -19.9Q26.25 -19.45 26.25 -18.45Q26.25 -17.65 25.65 -16.25L24.8 -14.2L26.15 -12.9" />
</g>
<g id="PathID_18" transform="matrix(0.305134, -0.0674502, 0.0674502, 0.305134, 61.95, 39.75)" opacity="1">
</g>
<g id="PathID_19" transform="matrix(0.305134, -0.0674502, 0.0674502, 0.305134, 70.05, 37.95)" opacity="1">
<path style="fill:#000000;fill-opacity:1" d="M26.15 -12.9Q26.55 -12.55 26.55 -12.2Q26.55 -11.45 25.85 -11.45Q25.7 -11.45 24.85 -12L24.2 -12.4Q21.05 -3.7 18.8 -0.6Q17.95 0.6 17.05 0.6Q16.65 0.6 15.3 0.2Q14.15 -0.2 13.85 -0.45Q13.6 -0.75 13.3 -1.85Q12.2 -6.35 12.2 -9.25Q10.95 -7.5 8.1 -4.05Q5.35 -0.8 4.75 0.1Q4.45 0.55 3.9 0.55Q3.2 0.55 1.7 -0.6Q1.35 -0.85 1.35 -1.1Q1.35 -1.5 2.35 -2.25Q3.2 -4.75 3.85 -8.65Q4.45 -12.45 4.45 -15.15Q4.45 -16.55 4.25 -17.3Q3.7 -16.8 2.05 -14.6Q1.75 -14.25 1.4 -14.25Q0.85 -14.25 0.85 -14.75Q0.85 -15 1 -15.2Q1.8 -16.2 3.2 -18.45Q3.65 -19.3 4.4 -19.6L6.3 -20.1L7 -20.2Q7.45 -20.2 7.55 -19.7Q7.65 -19.35 7.65 -17.95Q7.65 -10.1 5.9 -4.25Q10.45 -8.75 12.1 -13.05Q12.3 -15.4 12.5 -16.45Q12.8 -18.15 13.55 -19.4Q14.15 -20.5 14.85 -20.5Q15.45 -20.5 16.7 -19.6Q17.45 -19.1 17.45 -18.7Q17.45 -18.5 17.05 -17.4Q16.3 -15.3 15.2 -13.75Q14.95 -12.1 14.95 -10.3Q14.95 -6.65 15.95 -2.7Q16.2 -1.6 16.65 -1.6Q17.1 -1.6 17.8 -2.9Q21.5 -10.1 22.4 -13.75L21.75 -14.65Q21.4 -15.15 21.4 -15.7Q21.4 -16.2 21.65 -16.85L22.15 -19.15Q22.55 -20.65 23.45 -20.65Q24.2 -20.65 25.5 -19.9Q26.25 -19.45 26.25 -18.45Q26.25 -17.65 25.65 -16.25L24.8 -14.2L26.15 -12.9" />
</g>
<g id="PathID_20" transform="matrix(0.305134, -0.0674502, 0.0674502, 0.305134, 70.05, 37.95)" opacity="1">
</g>
<g id="PathID_21" transform="matrix(0.305134, -0.0674502, 0.0674502, 0.305134, 78.1, 36.2)" opacity="1">
<path style="fill:#000000;fill-opacity:1" d="M26.15 -12.9Q26.55 -12.55 26.55 -12.2Q26.55 -11.45 25.85 -11.45Q25.7 -11.45 24.85 -12L24.2 -12.4Q21.05 -3.7 18.8 -0.6Q17.95 0.6 17.05 0.6Q16.65 0.6 15.3 0.2Q14.15 -0.2 13.85 -0.45Q13.6 -0.75 13.3 -1.85Q12.2 -6.35 12.2 -9.25Q10.95 -7.5 8.1 -4.05Q5.35 -0.8 4.75 0.1Q4.45 0.55 3.9 0.55Q3.2 0.55 1.7 -0.6Q1.35 -0.85 1.35 -1.1Q1.35 -1.5 2.35 -2.25Q3.2 -4.75 3.85 -8.65Q4.45 -12.45 4.45 -15.15Q4.45 -16.55 4.25 -17.3Q3.7 -16.8 2.05 -14.6Q1.75 -14.25 1.4 -14.25Q0.85 -14.25 0.85 -14.75Q0.85 -15 1 -15.2Q1.8 -16.2 3.2 -18.45Q3.65 -19.3 4.4 -19.6L6.3 -20.1L7 -20.2Q7.45 -20.2 7.55 -19.7Q7.65 -19.35 7.65 -17.95Q7.65 -10.1 5.9 -4.25Q10.45 -8.75 12.1 -13.05Q12.3 -15.4 12.5 -16.45Q12.8 -18.15 13.55 -19.4Q14.15 -20.5 14.85 -20.5Q15.45 -20.5 16.7 -19.6Q17.45 -19.1 17.45 -18.7Q17.45 -18.5 17.05 -17.4Q16.3 -15.3 15.2 -13.75Q14.95 -12.1 14.95 -10.3Q14.95 -6.65 15.95 -2.7Q16.2 -1.6 16.65 -1.6Q17.1 -1.6 17.8 -2.9Q21.5 -10.1 22.4 -13.75L21.75 -14.65Q21.4 -15.15 21.4 -15.7Q21.4 -16.2 21.65 -16.85L22.15 -19.15Q22.55 -20.65 23.45 -20.65Q24.2 -20.65 25.5 -19.9Q26.25 -19.45 26.25 -18.45Q26.25 -17.65 25.65 -16.25L24.8 -14.2L26.15 -12.9" />
</g>
<g id="PathID_22" transform="matrix(0.305134, -0.0674502, 0.0674502, 0.305134, 78.1, 36.2)" opacity="1">
</g>
</svg>
