<svg version="1.1" xmlns="http://www.w3.org/2000/svg" xmlns:xlink="http://www.w3.org/1999/xlink" preserveAspectRatio="xMidYMid meet" viewBox="736 279 255 111">
  <defs>
      <style TYPE="text/css">

		
		@font-face {
		font-family: 'Roboto Slab 300';
		src:url(componentes/fuentes/Roboto%20Slab%20300.ttf)
		}      
		
		@font-face {
		font-family: 'Pacifico_regular';
		src:url(componentes/fuentes/Pacifico-regular.ttf);
		}

		
       	@font-face {
		font-family: 'Open Sans 300';
		src:url(componentes/fuentes/Open%20Sans%20300.ttf);
		}

       .Roboto{
          font-family: 'Roboto Slab 300';	 
          font-size: 32px;
	  
          
        }

        .Pacifico{
          font-family: 'Pacifico_regular', cursive;
          color:#B53133;	 
          font-size: 16px;	
        }

        .Open{
          font-family: 'Open Sans 300';		  
          font-size: 20px;
		  word-spacing:2px;
          letter-spacing: 1px;
          font-weight: normal;
          font-style: normal;
          fill:"#E38983";
        }


      </style>
    
      </defs>


      <g  transform="translate(832 320.411) scale(2.320304017372421 2.320304017372421) rotate(0 0 0)">

      <text dy="0.5ex" class="Roboto">ZAV</text>

      </g>


      <g transform="translate(760 335.4) scale(2.0796626054358014 2.0796626054358014) rotate(0 0 0)">

      <text dy="0.5ex" class="Pacifico"  > W </text>

      </g>
      

      <g transform="translate(832 365.1) scale(1.4980073514473307 1.4980073514473307) rotate(0 0 0)">

      <text dy="0.5ex" class="Open"  fill="#838383" >Desarrollo</text>

      </g>



      <g  transform="translate(739.8460006713867 280.1619987487793) scale(1.2489908602188646 1.2489908602188646) rotate(0 0 0)" >


      <path fill="#9E9E9E"
            d="M69.618,12.986C53.845,12.461,51.269,0,51.269,0H18.426C14.563,14.026,0.074,12.723,0.074,12.723
            c-1.934,51.176,34.772,71.952,34.772,71.952S2.003,61.294,2.003,14.801c0,0,13.526,0.776,17.714-11.948h29.615
            c0,0,4.502,10.907,17.709,11.948c0,0,5.15,41.295-32.194,69.875C74.448,58.955,69.618,12.986,69.618,12.986" 
            data-part-id="logo__item--shape_1__0">
        
      </path>
      
      <path fill="#ea4a4f" 
            d="M20.583,6.42c0,0-2.27,10.948-16.23,10.57c0,0-1.511,35.482,25.664,61.525c0,0-22.647-23.023-22.647-59.637
            C7.369,18.877,18.695,17.745,20.583,6.42" 
            data-part-id="logo__item--shape_1__1">
        
      </path>


      </g>


      </svg>